<svg xmlns="http://www.w3.org/2000/svg" xmlns:xlink="http://www.w3.org/1999/xlink" xmlns:inkscape="http://www.inkscape.org/namespaces/inkscape" version="1.1" width="375" height="375" viewBox="0 0 375 375">
<defs>
<path id="font_1_1" d="M.04899597 .3849945 .072006229 .45399476 .45799256 .2899933V.21899414L.072006229 .054992677 .04899597 .12399292 .3659973 .25500489 .04899597 .3849945Z"/>
<path id="font_1_2" d="M.0079956059-.09500122H.4920044V-.16499329H.0079956059V-.09500122Z"/>
<path id="font_2_1" d="M.044006349 .2353363C.044006349 .26935325 .04933675 .30136619 .05999756 .33137513 .07066854 .36138407 .08700053 .38755799 .10899353 .40989686 .1309967 .43223573 .15882874 .4499054 .19248963 .46290589 .22616069 .47591654 .266332 .48242188 .31300355 .48242188 .34099833 .48242188 .3663279 .4804128 .3889923 .47639466 .4116567 .4723765 .43465678 .46568299 .45799256 .4563141L.43099977 .35699464C.41766358 .36166383 .40282694 .36582948 .38648988 .36949159 .37016297 .37316386 .34933473 .375 .32400514 .375 .29466758 .375 .27016703 .37150575 .25050355 .3645172 .23084004 .35753886 .21500652 .3478953 .20300293 .33558656 .19100952 .32328797 .18234253 .30849204 .17700196 .29119874 .17167156 .27391563 .16900635 .2552948 .16900635 .2353363 .16900635 .19211324 .18117269 .15819805 .20550537 .1335907 .22983806 .10898336 .27133689 .09667969 .33000184 .09667969 .3493398 .09667969 .36950685 .09801229 .39050294 .10067749 .41149903 .10335287 .43066407 .107691448 .44799806 .11369324L.46600343 .01234436C.44866944 .0056508386 .42766825 .00013224285 .40299989-.004211426 .3783315-.008565267 .34933473-.0107421879 .31600953-.0107421879 .26800538-.0107421879 .22683716-.00440979 .19250489 .008255005 .1581726 .020929972 .13000489 .038269044 .10800171 .060272218 .086008708 .08228556 .06984457 .108296718 .059509279 .13830567 .049173993 .16831462 .044006349 .20065816 .044006349 .2353363Z"/>
<path id="font_2_2" d="M.14300537 .36816407H.035995485V.46972657H.14300537V.5878906L.26600648 .6074219V.46972657H.46299745V.36816407H.26600648V.17852783C.26600648 .16122437 .26766969 .14724732 .2709961 .13659668 .27433268 .12595622 .27900187 .117640178 .28500367 .11164856 .29100547 .105656947 .29833985 .10166422 .30700685 .09967041 .31567384 .0976766 .32533775 .09667969 .33599855 .09667969 .34733073 .09667969 .35782878 .09701538 .36749269 .09768677 .37716676 .098358158 .38650004 .09952291 .39549256 .10118103 .40449525 .10284933 .41382853 .10535177 .42349244 .108688358 .4331665 .11202494 .44366966 .11635844 .45500184 .12168884L.47200013 .015365601C.44933573 .005996704 .4248352-.00069681808 .39849855-.004714966 .37217204-.008733113 .3466746-.0107421879 .32200624-.0107421879 .29334007-.0107421879 .26800538-.008407593 .2460022-.0037384034 .22399903 .0009206136 .20533245 .009913127 .19000244 .023239136 .17467244 .036575319 .16300456 .055404664 .15499878 .07972717 .14700318 .10405985 .14300537 .1358897 .14300537 .17521668V.36816407Z"/>
<path id="font_2_3" d="M.43699647 .3453369C.42900086 .3473409 .41949974 .3493398 .40849305 .35133363 .39749656 .35333763 .38633219 .35516868 .375 .35682679 .36366783 .3584951 .35266624 .35965983 .34199525 .36032105 .33133445 .36099244 .32233683 .36132813 .31500245 .36132813 .29766847 .36132813 .28066508 .360494 .2639923 .35882569 .24732971 .35715739 .23033142 .35398866 .21299744 .34931947V0H.08900452V.43945313C.121668498 .4514669 .15516663 .46114097 .1894989 .46847535 .22383118 .47581993 .2639974 .4794922 .30999757 .4794922 .31667076 .4794922 .32617188 .4791565 .33850099 .4784851 .35083009 .47782389 .36399333 .47665916 .37799073 .47499085 .3919983 .47332255 .4061686 .47131858 .4205017 .46897889 .4348348 .4666392 .44766746 .46346537 .45899964 .4594574L.43699647 .3453369Z"/>
<path id="font_2_4" d="M.46699525 .020462037C.46499125 .019119263 .4604899 .01676941 .4534912 .013412476 .44649253 .010055542 .43732707 .0065307619 .42599488 .0028381348 .4146627-.00084431967 .40082804-.0040283205 .38449098-.006713867 .36816407-.009399414 .3496653-.0107421879 .32899476-.0107421879 .27233378-.0107421879 .23100281 .006108602 .20500183 .03981018 .17900086 .07351176 .16600037 .12273153 .16600037 .18746948V.58691409H.035995485V.68847659H.28900147V.1786499C.28900147 .1466573 .29533387 .12499491 .30799867 .11366272 .32066346 .1023407 .33666484 .09667969 .3560028 .09667969 .38067118 .09667969 .40133668 .10007731 .41799928 .10687256 .43466188 .11366781 .44565837 .11808268 .45098878 .12011719L.46699525 .020462037Z"/>
<path id="font_2_5" d="M.15299988 .23835755C.15299988 .19645691 .16083272 .16220601 .17649842 .13560486 .19216411 .1090037 .21733094 .095703128 .2519989 .095703128 .2619985 .095703128 .2713318 .09603373 .27999879 .09669495 .28866578 .09735616 .29766847 .098353069 .30700685 .09968567V.3544922C.29766847 .3599752 .28699748 .3645986 .2749939 .36836244 .2630005 .37213645 .2503357 .37402345 .23699951 .37402345 .20767212 .37402345 .18634033 .36238609 .17300415 .33911134 .15966797 .31583659 .15299988 .28225199 .15299988 .23835755M.42999269 .014266968C.40732829 .0069325768 .37965904 .00093078616 .34698487-.0037384034 .3143209-.008407593 .2823232-.0107421879 .25099183-.0107421879 .17765808-.0107421879 .12215678 .010930379 .084487918 .054275514 .046829225 .09763082 .027999878 .1569926 .027999878 .23236084 .027999878 .30906169 .043833417 .36958824 .07550049 .41394044 .107167568 .45829264 .15400188 .48046876 .21600342 .48046876 .2326762 .48046876 .24900818 .47859193 .2649994 .47483827 .28100077 .4710846 .29500328 .46579997 .30700685 .45898438V.67285159L.42999269 .69433596V.014266968Z"/>
<path id="font_2_6" d="M.118011478-.07324219C.13001506-.07055664 .1421814-.06820679 .1545105-.06619263 .1668396-.06417847 .1785024-.06115214 .1894989-.057113649 .20050557-.053085329 .2103424-.04737854 .2190094-.039993287 .22767639-.032608034 .2346751-.022532145 .2400055-.009765625 .2146759-.0071004235 .19500733 .0028839112 .18099976 .020187378 .16700237 .03750102 .16000366 .05680847 .16000366 .07810974 .16000366 .1040802 .16850281 .12538655 .1855011 .14202881 .20249939 .15867107 .22399903 .16699219 .25 .16699219 .27800498 .16699219 .2998403 .15764873 .31550599 .13896179 .33117167 .120274867 .33900453 .09491984 .33900453 .06289673 .33900453 .039540609 .3353373 .016184489 .32800294-.007171631 .32066856-.03052775 .3088328-.052215578 .29249574-.07223511 .27616883-.09225464 .25500489-.10960388 .2290039-.12428284 .20300293-.13897197 .17134094-.14865113 .13401795-.15332031L.118011478-.07324219M.33999635 .3818512C.33999635 .35256449 .33099366 .33026634 .31298829 .31495667 .29499308 .299647 .2743276 .2919922 .25099183 .2919922 .23899842 .2919922 .22766622 .293986 .21699524 .29797364 .20632427 .30197145 .19682312 .3077952 .18849182 .31544496 .18016052 .32310487 .17349243 .33242799 .16848755 .3434143 .16349285 .35440064 .16099549 .36721293 .16099549 .3818512 .16099549 .3958384 .16349285 .4083201 .16848755 .41929627 .17349243 .4302826 .18016052 .43943788 .18849182 .44676209 .19682312 .4540863 .20632427 .45974223 .21699524 .46372987 .22766622 .46772767 .23899842 .46972657 .25099183 .46972657 .2743276 .46972657 .29499308 .46207176 .31298829 .44676209 .33099366 .43145243 .33999635 .40981547 .33999635 .3818512Z"/>
</defs>
<g>
<use data-text="&#x003e;" xlink:href="#font_1_1" transform="matrix(400.7451,0,0,-399.25584,-67.31232,233.91062)" fill="#f59e0b" fill-opacity=".152941"/>
<use data-text="_" xlink:href="#font_1_2" transform="matrix(400.7451,0,0,-399.25584,95.49034,233.91062)" fill="#f59e0b" fill-opacity=".152941"/>
<use data-text="c" xlink:href="#font_2_1" transform="matrix(110.00026,0,0,-110.00026,40.146368,215.55446)" fill="#e0e0e0"/>
<use data-text="t" xlink:href="#font_2_2" transform="matrix(110.00026,0,0,-110.00026,91.406497,215.55446)" fill="#e0e0e0"/>
<use data-text="r" xlink:href="#font_2_3" transform="matrix(110.00026,0,0,-110.00026,142.66661,215.55446)" fill="#e0e0e0"/>
<use data-text="l" xlink:href="#font_2_4" transform="matrix(110.00026,0,0,-110.00026,193.92675,215.55446)" fill="#e0e0e0"/>
<use data-text="d" xlink:href="#font_2_5" transform="matrix(110.00026,0,0,-110.00026,245.18688,215.55446)" fill="#e0e0e0"/>
<use data-text=";" xlink:href="#font_2_6" transform="matrix(129.99974,0,0,-129.99974,296.397,215.55446)" fill="#f59e0b"/>
</g>
</svg>
